<?xml version="1.0" encoding="iso-8859-1"?>
<!-- Generator: Adobe Illustrator 19.0.0, SVG Export Plug-In . SVG Version: 6.00 Build 0)  -->
<svg version="1.1" id="Layer_1" xmlns="http://www.w3.org/2000/svg" xmlns:xlink="http://www.w3.org/1999/xlink" x="0px" y="0px"
	 viewBox="0 0 490 490" style="enable-background:new 0 0 490 490;" xml:space="preserve">
<g>
	<g id="XMLID_53_">
		<g>
			<rect x="337.5" y="400" style="fill:#B3B3B3;" width="50" height="40"/>
			<polygon style="fill:#B3B3B3;" points="362.5,150 387.5,200 337.5,200 			"/>
			<rect x="337.5" y="200" style="fill:#FFD248;" width="50" height="200"/>
			<path style="fill:#E6E6E6;" d="M437.5,160v330h-185v-90h-120c-55,0-10-35-40-80h-40l20-100v-60c0-80,67.16-150,150-150h65
				C370.34,10,437.5,77.16,437.5,160z M387.5,440v-40V200l-25-50l-25,50v200v40H387.5z"/>
		</g>
		<g>
			<g>
				<path d="M447.5,490h-20V160c0-77.196-62.804-140-140-140h-65c-75.888,0-140,64.112-140,140v60c0,0.658-0.065,1.315-0.194,1.961
					L64.698,310H92.5c3.343,0,6.466,1.671,8.32,4.453c14.986,22.479,13.622,42.645,12.626,57.369
					c-0.434,6.411-0.882,13.04,0.831,14.872c0.725,0.775,4.181,3.306,18.224,3.306h120c5.523,0,10,4.478,10,10v90h-20v-80h-110
					c-16.472,0-26.599-2.976-32.835-9.649c-7.642-8.176-6.895-19.209-6.173-29.878c0.812-12,1.723-25.457-6.596-40.473H52.5
					c-2.996,0-5.834-1.343-7.733-3.66c-1.899-2.316-2.66-5.363-2.072-8.301L62.5,219.01V160c0-41.051,17.065-81.882,46.818-112.025
					C139.856,17.038,180.051,0,222.5,0h65c88.224,0,160,71.775,160,160V490z"/>
			</g>
			<path d="M396.437,195.532l0.007-0.004l-25-50c-1.694-3.389-5.157-5.528-8.944-5.528s-7.25,2.14-8.944,5.528l-25,50l0.007,0.004
				c-0.674,1.346-1.063,2.86-1.063,4.468v200v40c0,5.522,4.477,10,10,10h50c5.523,0,10-4.478,10-10v-40V200
				C397.5,198.393,397.111,196.878,396.437,195.532z M377.5,390h-30V210h30V390z M362.5,172.36l8.82,17.64h-17.64L362.5,172.36z
				 M377.5,430h-30v-20h30V430z"/>
			<path d="M322.5,155v-20h-45V70h-20v65h-95v20h50v35h-75c-5.523,0-10,4.477-10,10v65h20v-55h65v35h20v-55h40v110h20V180
				c0-5.523-4.477-10-10-10h-50v-15H322.5z"/>
		</g>
	</g>
</g>
<g>
</g>
<g>
</g>
<g>
</g>
<g>
</g>
<g>
</g>
<g>
</g>
<g>
</g>
<g>
</g>
<g>
</g>
<g>
</g>
<g>
</g>
<g>
</g>
<g>
</g>
<g>
</g>
<g>
</g>
</svg>
